<?xml version="1.0" standalone="no"?>
<!DOCTYPE svg PUBLIC "-//W3C//DTD SVG 20010904//EN"
 "http://www.w3.org/TR/2001/REC-SVG-20010904/DTD/svg10.dtd">
<svg version="1.0" xmlns="http://www.w3.org/2000/svg"
 width="256.000000pt" height="256.000000pt" viewBox="0 0 256.000000 256.000000"
 preserveAspectRatio="xMidYMid meet">
<metadata>
Created by potrace 1.16, written by Peter Selinger 2001-2019
</metadata>
<g transform="translate(0.000000,256.000000) scale(0.100000,-0.100000)"
fill="#000000" stroke="none">
<path d="M40 1286 l0 -176 40 0 40 0 0 55 0 55 39 0 c21 0 52 5 69 11 56 19
84 92 58 152 -22 54 -53 69 -156 75 l-90 5 0 -177z"/>
<path d="M967 1453 c-4 -3 -7 -28 -7 -54 l0 -48 -27 15 c-38 19 -72 18 -110
-6 -90 -54 -82 -206 12 -246 44 -18 63 -18 100 2 19 10 31 11 33 5 2 -6 19
-11 38 -11 l34 0 0 175 0 175 -33 0 c-19 0 -37 -3 -40 -7z"/>
<path d="M412 1364 c-12 -8 -22 -10 -22 -5 0 6 -16 11 -35 11 l-35 0 0 -130 0
-130 35 0 35 0 0 79 c0 81 12 111 46 111 10 0 14 12 14 40 0 44 -5 47 -38 24z"/>
<path d="M544 1366 c-91 -40 -109 -166 -34 -230 59 -49 145 -41 200 19 21 22
25 37 25 85 0 48 -4 63 -25 85 -50 54 -105 67 -166 41z"/>
<path d="M1393 1365 c-65 -28 -93 -126 -57 -196 20 -40 93 -73 140 -64 39 7
99 55 107 85 4 17 0 20 -33 20 -21 0 -43 -7 -50 -15 -7 -8 -28 -15 -46 -15
-69 0 -84 85 -22 119 25 14 29 14 58 -7 21 -16 41 -22 65 -20 l34 3 -15 32
c-17 35 -83 73 -125 73 -13 -1 -39 -7 -56 -15z"/>
<path d="M2043 1364 c-44 -22 -73 -71 -73 -124 0 -56 25 -96 77 -121 77 -37
167 -1 193 77 39 118 -85 223 -197 168z"/>
<path d="M2362 1364 c-12 -8 -22 -10 -22 -5 0 6 -16 11 -35 11 l-35 0 0 -130
0 -130 35 0 35 0 0 83 c0 70 3 87 19 101 24 22 57 13 65 -17 3 -12 6 -55 6
-94 l0 -73 35 0 35 0 0 104 c0 121 -3 132 -41 151 -36 19 -69 19 -97 -1z"/>
<path d="M1060 1265 c0 -99 2 -108 24 -130 34 -34 73 -42 108 -22 15 9 28 12
28 7 0 -6 18 -10 40 -10 l40 0 0 130 0 130 -40 0 -40 0 0 -79 c0 -99 -5 -111
-41 -111 -39 0 -49 24 -49 114 l0 76 -35 0 -35 0 0 -105z"/>
<path d="M1870 1240 l0 -130 40 0 40 0 0 130 0 130 -40 0 -40 0 0 -130z"/>
</g>
</svg>
